<?xml version="1.0" encoding="utf-8"?>
<!-- Generator: Adobe Illustrator 27.2.0, SVG Export Plug-In . SVG Version: 6.00 Build 0)  -->
<svg version="1.1" id="レイヤー_1" xmlns="http://www.w3.org/2000/svg" xmlns:xlink="http://www.w3.org/1999/xlink" x="0px"
	 y="0px" viewBox="0 0 13 13" style="enable-background:new 0 0 13 13;" xml:space="preserve">
<style type="text/css">
	.st0{fill:#EB8393;}
</style>
<g id="icon_x5F_error_00000155134025125305812300000013529535446078845328_">
	<g>
		<g>
			<path class="st0" d="M6.5,1C9.533,1,12,3.467,12,6.5S9.533,12,6.5,12S1,9.533,1,6.5S3.467,1,6.5,1 M6.5,0C2.91,0,0,2.91,0,6.5
				S2.91,13,6.5,13S13,10.09,13,6.5S10.09,0,6.5,0L6.5,0z"/>
		</g>
	</g>
	<path class="st0" d="M5.585,9.408c0-0.55,0.39-0.959,0.91-0.959c0.52,0,0.919,0.41,0.919,0.959c0,0.54-0.4,0.959-0.919,0.959
		C5.975,10.368,5.585,9.948,5.585,9.408z M5.805,4.021l-0.05-1.389h1.479l-0.05,1.389l-0.21,3.688H6.015L5.805,4.021z"/>
</g>
</svg>
